<svg xmlns="http://www.w3.org/2000/svg" viewBox="0 0 128 128" role="img" aria-label="División Industrial">
<defs>
  <linearGradient id="bg" x1="14" y1="10" x2="114" y2="118" gradientUnits="userSpaceOnUse">
    <stop stop-color="#143F63"/>
    <stop offset=".58" stop-color="#1B6387"/>
    <stop offset="1" stop-color="#2A8C88"/>
  </linearGradient>
</defs>
<rect x="5" y="5" width="118" height="118" rx="24" fill="url(#bg)"/>
<!-- casco -->
<path d="M25 48c0-16 12-28 27-28s27 12 27 28" fill="none" stroke="#fff" stroke-width="6" stroke-linecap="round"/>
<path d="M20 49h64" stroke="#fff" stroke-width="6" stroke-linecap="round"/>
<path d="M52 20v17" stroke="#fff" stroke-width="6" stroke-linecap="round"/>
<!-- fábrica / nave -->
<path d="M22 92V66l20 10V64l19 10V61l19 10V54l25 14v24H22Z" fill="#fff"/>
<rect x="29" y="79" width="10" height="13" rx="1" fill="#174E73"/>
<rect x="47" y="79" width="10" height="13" rx="1" fill="#174E73"/>
<rect x="65" y="79" width="10" height="13" rx="1" fill="#174E73"/>
<rect x="84" y="76" width="12" height="16" rx="1" fill="#174E73"/>
<!-- herramienta -->
<path d="M90 30l7 7-17 17-8 1 1-8 17-17Z" fill="#DDF6F1"/>
<circle cx="95" cy="32" r="8" fill="none" stroke="#DDF6F1" stroke-width="4"/>
</svg>