<svg xmlns="http://www.w3.org/2000/svg" viewBox="0 0 120 120">
<defs><linearGradient id="g" x1="0" y1="0" x2="1" y2="1"><stop stop-color="#173f65"/><stop offset="1" stop-color="#2f79aa"/></linearGradient></defs>
<rect x="4" y="4" width="112" height="112" rx="24" fill="url(#g)"/>
<path d="M25 79V55l21 10V53l21 11V48l25 15v16H25Z" fill="#fff" opacity=".96"/>
<rect x="31" y="70" width="10" height="9" rx="1" fill="#173f65"/><rect x="49" y="70" width="10" height="9" rx="1" fill="#173f65"/>
<rect x="67" y="70" width="10" height="9" rx="1" fill="#173f65"/><rect x="84" y="68" width="7" height="11" rx="1" fill="#173f65"/>
<path d="M35 50c0-9 7-16 16-16s16 7 16 16" fill="none" stroke="#fff" stroke-width="6" stroke-linecap="round"/>
<circle cx="51" cy="50" r="7" fill="#fff"/>
<g fill="#fff"><rect x="48" y="24" width="6" height="9" rx="2"/><rect x="48" y="67" width="6" height="9" rx="2" transform="rotate(90 51 71.5)"/>
<rect x="25" y="47" width="9" height="6" rx="2"/><rect x="68" y="47" width="9" height="6" rx="2"/></g>
</svg>